<svg width="19" height="14" viewBox="0 0 19 14" fill="none" xmlns="http://www.w3.org/2000/svg">
<path d="M6.8175 13.6375C6.6275 13.6375 6.4375 13.5675 6.2875 13.4175L0.2175 7.3475C-0.0725 7.0575 -0.0725 6.5775 0.2175 6.2875L6.2875 0.2175C6.5775 -0.0725 7.0575 -0.0725 7.3475 0.2175C7.6375 0.5075 7.6375 0.9875 7.3475 1.2775L1.8075 6.8175L7.3475 12.3575C7.6375 12.6475 7.6375 13.1275 7.3475 13.4175C7.2075 13.5675 7.0075 13.6375 6.8175 13.6375Z" fill="#14142A"/>
<path d="M17.7475 7.5675H0.9175C0.5075 7.5675 0.1675 7.2275 0.1675 6.8175C0.1675 6.4075 0.5075 6.0675 0.9175 6.0675H17.7475C18.1575 6.0675 18.4975 6.4075 18.4975 6.8175C18.4975 7.2275 18.1575 7.5675 17.7475 7.5675Z" fill="#14142A"/>
</svg>
